# xmcd CD database file
#
# Track frame offsets:
#	300
#	16708
#	36419
#	52755
#	70389
#	86238
#	104037
#	121762
#	140652
#	158410
#	175645
#	192190
#	207982
#	225496
#	246118
#	263238
#	280810
#	300158
#
# Disc length: 4233 seconds
#
# Revision: 2
# Processed by: cddbd v1.5.2PL0 Copyright (c) Steve Scherf et al.
# Submitted via: CDex 1.51
#
DISCID=ee108512
DTITLE=Various Artist - SF-332
DYEAR=1900
DGENRE=Blues
TTITLE0=Lorde - Royals
TTITLE1=Union J - Beautiful Life
TTITLE2=James Arthur - You,re Nobody Till Somebody Loves You
TTITLE3=Miley Cyrus - Wrecking Ball
TTITLE4=Lawson - Juliet
TTITLE5=Klangkarussell Ft Will Heard - Sonnentanz (sun don't shine)
TTITLE6=James Blunt - Bonfire Heart
TTITLE7=Coldplay - Atlas
TTITLE8=John Newman - Cheating
TTITLE9=Drake Ft Majid Jordan - Hold On We're Going Home
TTITLE10=Shane Filan - Everything To Me
TTITLE11=Saturdays The - Disco Love
TTITLE12=Matt Cardle and melanie C - Loving You
TTITLE13=OneRepublic - Counting Stars
TTITLE14=Cher Lloyd Ft T.I - I Wish
TTITLE15=Rizzle Kicks - Love Generation
TTITLE16=Conor Maynard - R U Crazy
TTITLE17=Ylvis - The Fox
EXTD=
EXTT0=
EXTT1=
EXTT2=
EXTT3=
EXTT4=
EXTT5=
EXTT6=
EXTT7=
EXTT8=
EXTT9=
EXTT10=
EXTT11=
EXTT12=
EXTT13=
EXTT14=
EXTT15=
EXTT16=
EXTT17=
PLAYORDER=
